<svg version="1.1" viewBox="0.0 0.0 107.25984251968504 101.0971128608924" fill="none" stroke="none" stroke-linecap="square" stroke-miterlimit="10" xmlns:xlink="http://www.w3.org/1999/xlink" xmlns="http://www.w3.org/2000/svg"><clipPath id="p.0"><path d="m0 0l107.25984 0l0 101.097115l-107.25984 0l0 -101.097115z" clip-rule="nonzero"/></clipPath><g clip-path="url(#p.0)"><path fill="#000000" fill-opacity="0.0" d="m0 0l107.25984 0l0 101.097115l-107.25984 0z" fill-rule="evenodd"/><path fill="#000000" fill-opacity="0.0" d="m44.136993 8.425197c-22.633732 0 -39.22442 38.449642 -31.986874 59.895016c7.2371683 21.444252 44.91305 27.735733 65.42258 18.165352c16.59005 -7.741432 25.529434 -38.655167 14.217842 -53.04987c-16.241257 -20.668022 -49.55059 -24.858646 -75.69291 -22.115486" fill-rule="evenodd"/><path stroke="#000000" stroke-width="12.0" stroke-linejoin="round" stroke-linecap="butt" d="m44.136993 8.425197c-22.633732 0 -39.22442 38.449642 -31.986874 59.895016c7.2371683 21.444252 44.91305 27.735733 65.42258 18.165352c16.59005 -7.741432 25.529434 -38.655167 14.217842 -53.04987c-16.241257 -20.668022 -49.55059 -24.858646 -75.69291 -22.115486" fill-rule="evenodd"/></g></svg>