<?xml version="1.0" standalone="no"?>
<!DOCTYPE svg PUBLIC "-//W3C//DTD SVG 20010904//EN"
 "http://www.w3.org/TR/2001/REC-SVG-20010904/DTD/svg10.dtd">
<svg version="1.0" xmlns="http://www.w3.org/2000/svg"
 width="856.000000pt" height="856.000000pt" viewBox="0 0 856.000000 856.000000"
 preserveAspectRatio="xMidYMid meet">
<metadata>
Created by potrace 1.14, written by Peter Selinger 2001-2017
</metadata>
<g transform="translate(0.000000,856.000000) scale(0.100000,-0.100000)"
fill="#000000" stroke="none">
<path d="M3407 8114 c-1 -1 -36 -5 -77 -8 -41 -3 -87 -8 -101 -11 -14 -3 -41
-7 -60 -9 -19 -3 -34 -5 -34 -6 0 -1 -13 -4 -30 -6 -41 -6 -245 -62 -270 -74
-11 -5 -47 -19 -80 -31 -55 -20 -82 -22 -345 -24 -376 -4 -710 -17 -731 -31
-8 -5 -9 -3 -4 6 5 8 4 11 -3 6 -6 -3 -41 -9 -79 -12 -37 -2 -86 -6 -108 -8
-84 -7 -210 -19 -220 -20 -18 -3 -35 -17 -30 -25 2 -5 7 -35 10 -67 8 -89 14
-155 20 -194 3 -19 7 -64 10 -100 2 -36 7 -84 10 -107 10 -85 15 -129 21 -183
3 -30 7 -73 10 -95 2 -22 6 -69 9 -104 3 -35 8 -67 11 -72 3 -6 23 -7 45 -4
39 6 69 -2 52 -14 -5 -3 -22 -24 -38 -46 -17 -22 -32 -42 -35 -45 -10 -8 -190
-278 -190 -284 0 -3 -12 -22 -26 -43 -14 -21 -30 -47 -35 -58 -5 -11 -18 -33
-29 -50 -46 -72 -200 -373 -200 -392 0 -7 -4 -13 -10 -13 -5 0 -10 -5 -10 -12
0 -6 -13 -38 -29 -72 -36 -76 -136 -327 -140 -349 0 -4 -8 -24 -17 -45 -19
-45 -86 -250 -91 -276 -2 -11 -8 -25 -14 -33 -6 -7 -9 -13 -6 -13 3 0 -3 -30
-14 -67 -11 -38 -21 -78 -23 -90 -3 -13 -7 -26 -10 -31 -3 -5 -7 -19 -10 -33
-3 -13 -7 -33 -10 -44 -7 -29 -54 -255 -60 -290 -21 -115 -26 -145 -31 -180
-3 -22 -7 -56 -10 -75 -5 -35 -10 -85 -20 -177 -24 -229 -24 -668 -1 -838 3
-16 7 -52 11 -80 14 -110 17 -131 42 -245 8 -41 18 -86 20 -100 3 -14 7 -32
10 -40 3 -8 8 -24 10 -34 2 -11 10 -40 19 -65 9 -25 18 -57 20 -70 3 -13 12
-37 20 -52 8 -16 15 -32 15 -36 4 -23 17 -56 58 -146 17 -37 31 -71 31 -75 0
-5 6 -14 12 -21 7 -6 13 -15 13 -19 2 -31 220 -370 265 -412 3 -3 32 -36 65
-75 97 -114 303 -313 378 -364 12 -8 24 -18 27 -21 3 -3 23 -19 45 -35 22 -17
42 -32 45 -36 6 -6 237 -159 268 -176 12 -7 32 -19 45 -25 12 -7 24 -15 27
-18 3 -3 28 -17 55 -30 28 -14 52 -27 55 -30 13 -14 303 -150 319 -150 6 0 11
-5 11 -10 0 -6 3 -9 8 -9 4 1 9 0 12 -1 3 -1 12 -3 20 -5 8 -2 47 -17 85 -33
183 -76 501 -174 705 -218 14 -3 43 -10 65 -16 39 -10 68 -16 110 -23 11 -2
72 -13 135 -24 63 -11 131 -23 150 -25 19 -3 49 -7 65 -10 17 -2 53 -7 80 -11
28 -3 68 -8 90 -11 43 -5 110 -11 250 -21 118 -9 645 -9 760 -1 192 14 231 18
260 22 16 3 53 8 80 11 28 3 66 8 85 11 19 3 52 7 74 10 21 2 42 6 46 9 4 3
26 7 47 10 80 10 408 84 456 104 15 6 27 8 27 5 0 -4 6 -2 12 3 7 6 36 16 63
23 45 12 252 88 330 121 17 7 32 13 35 14 3 0 35 15 71 33 37 18 72 32 78 32
6 0 11 5 11 10 0 6 5 10 11 10 16 0 185 102 274 166 245 175 526 464 695 715
24 35 46 66 50 69 14 11 148 238 212 360 22 41 45 84 51 95 6 11 12 22 12 25
4 24 18 50 27 50 6 0 9 3 5 6 -3 3 3 23 14 42 10 20 19 40 19 44 0 4 11 31 24
60 31 67 69 168 108 283 16 50 32 97 35 105 7 18 5 11 38 125 14 50 28 97 30
105 10 44 27 117 31 135 2 11 11 52 19 90 9 39 18 84 20 100 3 17 7 46 11 65
3 19 7 46 9 60 1 14 5 43 9 65 20 139 26 230 30 470 2 116 -1 218 -6 228 -6
11 -5 17 2 17 6 0 9 3 6 8 -2 4 -7 39 -10 77 -6 68 -12 117 -23 180 -2 17 -6
46 -8 65 -3 38 -48 243 -66 300 -5 19 -12 42 -14 50 -27 108 -155 420 -176
428 -5 2 -9 10 -9 18 0 8 -16 40 -35 70 -19 30 -35 59 -35 64 0 6 -4 10 -8 10
-5 0 -15 12 -23 28 -7 15 -24 41 -36 57 -13 17 -27 35 -31 40 -43 59 -68 92
-77 101 -5 6 -26 30 -45 53 -47 58 -151 170 -231 250 -57 58 -108 106 -224
210 -35 31 -229 186 -271 216 -15 11 -40 30 -55 43 -15 12 -32 22 -38 22 -6 0
-11 5 -11 10 0 6 -6 10 -13 10 -8 0 -22 9 -32 20 -10 11 -24 20 -32 20 -7 0
-13 5 -13 10 0 6 -7 10 -15 10 -8 0 -15 5 -15 10 0 6 -7 10 -15 10 -8 0 -15 4
-15 9 0 5 -12 15 -27 22 -16 8 -79 45 -141 82 -62 37 -117 67 -122 67 -6 0
-10 5 -10 10 0 6 -9 10 -19 10 -11 0 -21 4 -23 9 -5 14 -491 247 -533 255 -5
1 -30 11 -55 23 -25 11 -92 37 -150 58 -58 20 -114 41 -125 46 -45 20 -410
133 -462 144 -10 2 -31 8 -48 15 -16 6 -31 11 -32 11 -2 -1 -5 0 -8 0 -3 1
-13 2 -22 4 -10 1 -25 4 -33 7 -14 6 -81 23 -125 33 -47 11 -252 56 -280 62
-16 3 -41 7 -55 9 -14 1 -25 3 -25 4 0 2 -35 10 -65 15 -14 2 -79 13 -145 24
-66 11 -136 22 -155 25 -19 3 -46 8 -60 10 -14 3 -50 7 -80 10 -30 4 -68 9
-85 11 -16 3 -52 8 -80 11 -27 3 -59 7 -70 9 -11 2 -32 4 -47 4 l-27 1 3 105
c1 58 -1 109 -4 113 -4 6 -107 12 -113 6z m-302 -1150 c141 -10 169 -12 235
-18 36 -4 85 -8 110 -11 47 -4 203 -23 255 -31 58 -8 110 -16 135 -19 14 -2
27 -4 30 -5 3 -1 8 -2 12 -1 4 0 42 -6 85 -14 43 -7 92 -16 108 -19 17 -2 55
-10 85 -16 30 -6 65 -13 78 -16 41 -8 67 -13 92 -19 14 -3 35 -7 48 -9 12 -3
30 -7 40 -10 9 -3 28 -7 42 -10 14 -3 68 -16 120 -30 83 -21 144 -38 280 -78
19 -5 76 -23 125 -40 50 -16 95 -31 100 -32 6 -2 19 -6 30 -11 11 -4 45 -16
75 -27 30 -12 64 -24 75 -29 11 -4 45 -18 75 -30 30 -12 75 -30 100 -41 75
-34 95 -41 103 -40 4 1 7 -2 7 -8 0 -5 5 -10 12 -10 16 0 365 -176 378 -191 3
-3 32 -21 65 -39 33 -19 86 -51 117 -72 31 -21 62 -38 68 -38 5 0 10 -4 10 -8
0 -5 24 -24 53 -43 28 -18 59 -39 67 -46 8 -6 53 -42 100 -80 47 -37 101 -81
120 -98 57 -48 292 -287 330 -334 19 -23 43 -53 54 -64 30 -35 106 -144 106
-152 0 -4 8 -19 18 -33 22 -32 84 -176 106 -247 9 -27 20 -63 26 -80 5 -16 11
-41 14 -55 3 -14 7 -36 10 -50 32 -149 37 -207 39 -455 1 -183 -7 -377 -18
-394 -2 -4 -6 -30 -10 -60 -4 -30 -9 -63 -11 -75 -3 -12 -7 -37 -10 -58 -3
-20 -21 -98 -40 -175 -41 -161 -39 -154 -46 -173 -14 -39 -60 -177 -63 -190
-13 -54 -171 -400 -187 -411 -5 -3 -10 -10 -10 -15 -2 -23 -11 -44 -19 -44 -5
0 -9 -5 -9 -12 0 -18 -126 -212 -214 -328 -81 -109 -299 -333 -355 -366 -17
-10 -31 -22 -31 -26 0 -4 -7 -8 -15 -8 -8 0 -15 -4 -15 -8 0 -11 -138 -92
-225 -132 -78 -35 -292 -117 -327 -124 -13 -3 -39 -10 -58 -16 -19 -6 -42 -13
-50 -15 -8 -1 -33 -8 -55 -13 -22 -6 -51 -13 -65 -16 -14 -3 -54 -12 -90 -20
-36 -8 -85 -18 -110 -21 -25 -4 -54 -9 -65 -11 -11 -2 -36 -6 -55 -8 -19 -3
-51 -8 -70 -11 -34 -5 -84 -10 -205 -21 -303 -25 -716 -17 -990 21 -16 2 -52
7 -80 10 -27 4 -61 8 -75 11 -14 2 -41 7 -60 9 -19 3 -55 10 -80 15 -25 5 -56
12 -70 14 -26 4 -162 34 -192 42 -10 2 -26 6 -36 8 -46 10 -110 28 -132 36
-14 6 -34 11 -45 13 -11 2 -27 7 -35 10 -8 3 -53 18 -100 33 -80 25 -329 122
-367 143 -10 5 -58 30 -108 55 -49 24 -110 56 -135 70 -25 14 -52 29 -60 33
-8 3 -29 17 -46 30 -17 13 -34 23 -38 23 -7 0 -20 10 -51 37 -7 7 -16 13 -20
13 -8 0 -79 53 -83 63 -2 4 -8 7 -12 7 -5 0 -28 17 -52 38 -101 90 -154 138
-169 157 -10 11 -41 45 -69 75 -43 47 -90 112 -180 250 -53 83 -137 313 -164
450 -3 14 -7 36 -10 50 -3 13 -8 42 -11 65 -4 22 -8 54 -11 70 -23 132 -22
623 0 775 3 19 8 54 11 77 3 23 8 55 10 70 4 31 16 102 19 118 2 6 7 33 11 60
5 28 10 52 10 55 1 3 5 19 9 35 4 17 12 48 17 70 5 22 12 49 14 60 10 49 57
221 65 235 4 8 8 17 7 20 0 5 21 75 30 100 4 8 7 17 8 20 12 40 28 88 49 145
25 68 32 84 54 135 22 49 35 85 34 93 -1 4 2 7 8 7 5 0 10 7 10 15 0 13 15 47
94 205 34 69 105 200 132 245 13 22 32 55 41 73 9 17 20 32 25 32 4 0 8 5 8
11 0 12 101 162 113 167 4 2 7 8 7 13 0 5 6 17 14 26 8 10 52 66 98 124 186
233 433 458 621 565 41 23 45 23 252 8z"/>
</g>
</svg>
